<?xml version="1.0" standalone="no"?>
<!DOCTYPE svg PUBLIC "-//W3C//DTD SVG 20010904//EN"
 "http://www.w3.org/TR/2001/REC-SVG-20010904/DTD/svg10.dtd">
<svg version="1.0" xmlns="http://www.w3.org/2000/svg"
 width="96.000000pt" height="96.000000pt" viewBox="0 0 96.000000 96.000000"
 preserveAspectRatio="xMidYMid meet">

<g transform="translate(0.000000,96.000000) scale(0.100000,-0.100000)"
fill="#000000" stroke="none">
<path d="M600 864 c-112 -24 -218 -83 -295 -165 -101 -108 -144 -224 -145
-390 0 -42 -6 -94 -14 -115 -7 -22 -16 -56 -20 -77 l-7 -37 40 0 c39 0 41 1
51 43 34 136 98 252 195 353 l67 69 -38 -70 c-61 -113 -102 -198 -110 -229 -7
-28 -6 -29 22 -22 90 21 282 146 331 215 13 20 11 25 -26 69 -40 46 -40 47
-18 54 12 3 49 6 83 7 l61 1 35 78 c38 82 65 161 70 202 l3 25 -110 2 c-64 1
-137 -5 -175 -13z"/>
</g>
</svg>
